<svg id="Layer_1" data-name="Layer 1" xmlns="http://www.w3.org/2000/svg" viewBox="0 0 563.54 1014.88"><defs><style>.cls-1{fill:#fff;}.cls-2,.cls-4{font-size:130px;stroke:#1d1d1b;stroke-miterlimit:10;stroke-width:3px;font-family:SouvenirGotURWTOTRegW03-Rg;}.cls-2,.cls-4,.cls-7{fill:#1d1d1b;}.cls-2{letter-spacing:-0.01em;}.cls-3{letter-spacing:0em;}.cls-4{letter-spacing:0em;}.cls-5{letter-spacing:-0.05em;}.cls-6{letter-spacing:-0.01em;}</style></defs><path class="cls-1" d="M139.13,142.27H702.66v978.36H139.13ZM675.26,628.42h0q0-218.2,0-436.41c0-20.9-9.66-30.67-30.39-30.68q-222.64,0-445.28,0c-23.94,0-32.57,8.57-32.58,32.29q0,435.93,0,871.85c0,18.72,10.24,29.3,28.89,29.32q224.12.12,448.23,0c22.07,0,31.14-9.62,31.14-32Z" transform="translate(-139.13 -105.75)"/><path d="M675.26,628.42v434.45c0,22.39-9.07,32-31.14,32q-224.11.09-448.23,0c-18.65,0-28.89-10.6-28.89-29.32q0-435.93,0-871.85c0-23.72,8.64-32.29,32.58-32.29q222.63-.07,445.28,0c20.73,0,30.38,9.78,30.39,30.68q0,218.21,0,436.41ZM184.68,906.68H657v-566H184.68Zm.13,20.56c-.22,2.47-.49,4-.49,5.59q0,67,0,134c0,9.91,3,12.55,14.08,12.55q222.6,0,445.21,0c12.06,0,14.25-2.22,14.27-14.31q.09-64.57,0-129.14c0-2.8-.44-5.6-.7-8.71Zm472-607.43a13.19,13.19,0,0,0,1-3.23q.09-64.53.08-129.06c0-9.23-5.9-11.26-13.69-11.26q-222.45.06-444.92.06c-12.33,0-15,2.61-15,14.82q0,59.64,0,119.29v9.38Z" transform="translate(-139.13 -105.75)"/><path d="M436.57,826h89.26c-13.54-10.67-17.28-24.15-18.39-38.32-3.87-49.39-20.36-94.63-44.39-137.44-7.12-12.68-15-24.94-22.76-37.76h0c3.1-2.1,5.8-3.87,8.44-5.71,26.56-18.57,43.85-41.6,50.17-73.66,7.81-39.62-1.26-80.13,8-118.74h0c-19.7-2.05-27.23-1.62-46.53-1.41,6.44,23.24,2.53,14.08,3.15,34.68,2.89,96-30.58,130.62-91.94,152a225.68,225.68,0,0,1-79.68,12.58V399l-7.14,17.72c-12.11.48-24.18,1.54-36.3,1.76q.54,174,.22,348.07c0,20.33,3,41.31-14.51,59.3h66.94c-3.25-12.4-8.9-24.58-9.22-36.89-1.13-43.35-.44-86.73-.41-130.1,0-3.13.31-6.26.49-9.59h0c4.29-.3,7.52-.57,10.75-.73,33-1.65,65.58-6.34,96.77-17.7,6.5-2.37,9.72-1.32,13.83,3.8,22.81,28.42,35.44,61.21,42.73,96.46C463.14,765.24,465.48,798.33,436.57,826Z" transform="translate(-139.13 -105.75)"/><path d="M387.74,871.25H317c1-2.27,1.45-4.13,2.52-5.46,8.4-10.46,10.88-22.54,10.84-35.65-.15-55,.07-110.11-.23-165.16,0-7.34,1.72-10.24,9.47-10.79,10.34-.74,20.56-3.18,31.63-5,.37,9.44,7,8.52,13.51,7.9,8.1-.78,16.32-.9,24.29-2.37,6.43-1.18,9.63,1,12,6.62,3.7,8.58,7.89,17,12.85,27.5l-61.3,5.67c0,3,0,6.16,0,9.27,0,38.77.29,77.54-.07,116.3C372.39,837.93,372.7,855.35,387.74,871.25Z" transform="translate(-139.13 -105.75)"/><path d="M443.8,444.33c-21.8.14-49.19.27-71.15.27v10.61c0,42-.23,84.05.22,126.08.08,7.4-2.32,10.53-9.09,12.08-10.7,2.44-21.27,5.44-33.48,8.62V590.93c0-45-.08-89.92.05-134.88,0-13.38.29-26.69-10.09-39.05,4.76-.29,7.82-.63,10.87-.63,26.4-.05,93.94-.42,120.33-.42v20.68C451.46,443,448,444.31,443.8,444.33Z" transform="translate(-139.13 -105.75)"/><path d="M291.49,467.24q-18.62.72-37.23,1.51c-1.33.06-4.59.18-5.86.35,0-8.38,0-16.65,0-25,0,0,4.84-40-12.08-57.32H301c-3.14,12-8.6,23.72-8.91,35.6C291.7,437.31,291.54,452.27,291.49,467.24Z" transform="translate(-139.13 -105.75)"/><text class="cls-2" transform="translate(148.04 187.62) scale(0.84 1)">KA<tspan class="cls-3" x="149.37" y="0">N</tspan><tspan x="231.27" y="0">G</tspan></text><text class="cls-4" transform="translate(77.04 943.56) scale(0.79 1)">R<tspan class="cls-5" x="68.9" y="0">E</tspan><tspan class="cls-6" x="131.17" y="0">C</tspan><tspan x="209.82" y="0">ORDS</tspan></text><path d="M459.12,510.9c12.42.47,26.68-42.69,39.09-42.15,1.33.06,2.63.18,3.91.35,0-8.38-1-6.63-1-15,0-19.62,6.37-50,23.28-67.35H451.46c3.14,12,8.6,23.72,8.91,35.6C460.76,437.31,464.52,458.19,459.12,510.9Z" transform="translate(-139.13 -105.75)"/><path class="cls-7" d="M480.78,105.75H361.5a16.6,16.6,0,0,0-16.6,16.6v34.27a16.6,16.6,0,0,0,16.6,16.6H480.78a16.6,16.6,0,0,0,16.6-16.6V122.35A16.6,16.6,0,0,0,480.78,105.75ZM389.7,160.31a19.65,19.65,0,1,1,19.65-19.65A19.66,19.66,0,0,1,389.7,160.31Zm63,0a19.65,19.65,0,1,1,19.65-19.65A19.65,19.65,0,0,1,452.7,160.31Z" transform="translate(-139.13 -105.75)"/><rect class="cls-7" x="175.46" y="60.56" width="6.89" height="160.3"/><rect class="cls-7" x="237.68" y="70.51" width="6.89" height="160.3"/><rect class="cls-7" x="303.76" y="66.85" width="6.89" height="160.3"/><rect class="cls-7" x="378.04" y="70.51" width="6.89" height="160.3"/><rect class="cls-7" x="101.32" y="821.5" width="6.89" height="160.3"/><rect class="cls-7" x="215.06" y="821.5" width="6.89" height="160.3"/><rect class="cls-7" x="156.39" y="817.44" width="6.89" height="160.3"/><rect class="cls-7" x="274.5" y="821.5" width="6.89" height="160.3"/><rect class="cls-7" x="337" y="819.5" width="6.89" height="160.3"/><rect class="cls-7" x="395.57" y="813.38" width="6.89" height="160.3"/><rect class="cls-7" x="456.4" y="819.5" width="6.89" height="160.3"/><rect class="cls-7" x="109.91" y="223.01" width="7.94" height="579.52"/><path class="cls-7" d="M536.6,646.71c-4.37,3.36-9,6.42-14.15,10.1,7.61,12.6,15.41,24.85,22.55,37.47,17.61,31.1,31,63.56,38.56,97.92v77.65h-64c.11-.83-.1-2.08.41-2.55,19.62-18.1,25.51-40.41,22.34-66.51-5.19-42.68-15.9-83.15-42.51-118-3.54-4.63-6-11.19-14.05-10.06-.95.13-2.62-2.52-3.44-4.14-4.83-9.55-9.51-19.18-13.61-27.51,15.27-12.13,32.27-37.38,45.07-50.41,30.61-44,20.69-104.79-4.22-147.48a2.82,2.82,0,0,1-.38-1.42s0-25.85,5.29-25.85c27.06,5.13,53.38,25.12,69.15,53.45v123C573,613,557,631,536.6,646.71Z" transform="translate(-139.13 -105.75)"/><path class="cls-7" d="M590.09,483.1v94.38a130.8,130.8,0,0,1-6.53,14.9v-123A117.21,117.21,0,0,1,590.09,483.1Z" transform="translate(-139.13 -105.75)"/><path d="M590.09,577.48V483.1a117.09,117.09,0,0,1,8.32,39.42C599.12,542.52,596.22,560.79,590.09,577.48Z" transform="translate(-139.13 -105.75)"/><path d="M607.63,869.85H583.56V792.2a299.25,299.25,0,0,1,6.13,41.37c.1,1.34.23,2.67.4,4C591.6,849.53,596,860.78,607.63,869.85Z" transform="translate(-139.13 -105.75)"/><path class="cls-7" d="M588.79,333.92V483.1a110.54,110.54,0,0,0-7.93-13.7V333.92Z" transform="translate(-139.13 -105.75)"/><path class="cls-7" d="M588.79,577.48v336h-7.93V592.38A120.43,120.43,0,0,0,588.79,577.48Z" transform="translate(-139.13 -105.75)"/><rect class="cls-7" x="190.99" y="223.01" width="7.94" height="579.52"/><rect class="cls-7" x="355.37" y="229.61" width="7.94" height="579.52"/><rect class="cls-7" x="465.39" y="373.31" width="6.53" height="91.8" transform="translate(748.73 -155.19) rotate(90)"/></svg>